<svg xmlns="http://www.w3.org/2000/svg" xml:space="preserve" fill="#0080ff" stroke="#0080ff" stroke-width="11.55" viewBox="-38.5 -38.5 461.96 461.96"><path d="M40.94 156.62h187.6a12.1 12.1 0 0 0 12.02-12.15 12.1 12.1 0 0 0-12.03-12.15H40.94l62.56-63.46a12.2 12.2 0 0 0 0-17.18 11.93 11.93 0 0 0-17.01 0l-83 84.2a12.3 12.3 0 0 0 0 17.19l83.01 84.2a11.94 11.94 0 0 0 17.01 0 12.2 12.2 0 0 0 0-17.18zm340.53 75.28-83-84.2a11.94 11.94 0 0 0-17.02 0 12.2 12.2 0 0 0 0 17.18l62.56 63.46H156.42a12.1 12.1 0 0 0-12.03 12.15 12.1 12.1 0 0 0 12.03 12.16h187.59l-62.56 63.46a12.2 12.2 0 0 0 0 17.17 11.93 11.93 0 0 0 17.01 0l83-84.2a12.3 12.3 0 0 0 .01-17.18z"/></svg>
